<svg width="43" height="33" viewBox="0 0 43 33" fill="none" xmlns="http://www.w3.org/2000/svg">
<path d="M36.4023 2.73745C33.614 1.44913 30.6719 0.529629 27.6492 0.0018795C27.6218 -0.00276404 27.5936 0.00124643 27.5686 0.0133596C27.5436 0.0254728 27.5229 0.0450938 27.5094 0.0695245C27.1305 0.745975 26.7112 1.63077 26.4183 2.32346C23.16 1.82561 19.8458 1.82561 16.5875 2.32346C16.2608 1.55182 15.8911 0.799315 15.4803 0.0695245C15.4665 0.0453613 15.4458 0.0259664 15.4208 0.0138922C15.3959 0.00181789 15.3679 -0.0023699 15.3405 0.0018795C12.3171 0.526805 9.37436 1.44678 6.58745 2.73745C6.5636 2.74661 6.54365 2.76382 6.53101 2.78615C0.957194 11.1714 -0.571978 19.3511 0.177827 27.4279C0.180515 27.4658 0.204702 27.5037 0.234264 27.528C3.47999 29.9487 7.11041 31.7968 10.9707 32.9937C10.998 33.0024 11.0273 33.0021 11.0543 32.9928C11.0814 32.9836 11.1048 32.9659 11.1212 32.9423C11.949 31.8059 12.6853 30.6072 13.3196 29.3463C13.3328 29.3203 13.3373 29.2908 13.3325 29.262C13.3276 29.2332 13.3137 29.2068 13.2927 29.1867C13.2788 29.1735 13.2623 29.1633 13.2443 29.1569C12.0864 28.7089 10.9651 28.1706 9.89035 27.547C9.86033 27.5298 9.83801 27.5017 9.828 27.4685C9.818 27.4352 9.82108 27.3994 9.8366 27.3684C9.84575 27.3482 9.85957 27.3306 9.87691 27.317C10.1027 27.1465 10.3284 26.9679 10.5434 26.7893C10.5624 26.774 10.5852 26.7641 10.6093 26.7607C10.6335 26.7574 10.6581 26.7607 10.6805 26.7704C17.719 30.0065 25.3379 30.0065 32.2904 26.7704C32.3136 26.7603 32.3392 26.7567 32.3642 26.76C32.3893 26.7634 32.413 26.7735 32.4329 26.7893C32.6479 26.9679 32.8736 27.1465 33.0994 27.317C33.1176 27.3304 33.1323 27.3482 33.1421 27.3688C33.1519 27.3894 33.1565 27.4121 33.1554 27.4349C33.1543 27.4576 33.1477 27.4798 33.136 27.4994C33.1244 27.5189 33.1081 27.5353 33.0886 27.547C32.0164 28.1763 30.8935 28.7139 29.732 29.1542C29.7134 29.1609 29.6966 29.1717 29.6827 29.1857C29.6687 29.1998 29.658 29.2167 29.6513 29.2354C29.6451 29.2534 29.6426 29.2726 29.644 29.2917C29.6454 29.3108 29.6506 29.3293 29.6594 29.3463C30.3044 30.6045 31.0434 31.8059 31.8551 32.9423C31.8715 32.9659 31.8949 32.9836 31.9219 32.9928C31.949 33.0021 31.9783 33.0024 32.0056 32.9937C35.8723 31.8005 39.5086 29.9521 42.7581 27.528C42.7744 27.5167 42.7879 27.5018 42.7977 27.4844C42.8075 27.4671 42.8132 27.4478 42.8146 27.4279C43.7122 18.0902 41.3123 9.97817 36.456 2.78886C36.4511 2.77698 36.4438 2.76627 36.4345 2.75742C36.4253 2.74856 36.4143 2.74176 36.4023 2.73745ZM14.3704 22.5087C12.25 22.5087 10.5058 20.5497 10.5058 18.147C10.5058 15.7415 12.2177 13.7825 14.3704 13.7825C16.5392 13.7825 18.2672 15.7578 18.2349 18.147C18.2349 20.5497 16.523 22.5087 14.3704 22.5087ZM28.657 22.5087C26.5392 22.5087 24.7924 20.5497 24.7924 18.147C24.7924 15.7415 26.5043 13.7825 28.657 13.7825C30.8258 13.7825 32.5565 15.7578 32.5215 18.147C32.5215 20.5497 30.8258 22.5087 28.657 22.5087Z" fill="white"/>
</svg>
