<svg width="43" height="43" viewBox="0 0 43 43" fill="none" xmlns="http://www.w3.org/2000/svg">
<path d="M21.5 0C9.62125 0 0 9.86461 0 22.0438C0 31.7982 6.15437 40.0371 14.7006 42.9579C15.7756 43.1508 16.1787 42.4895 16.1787 41.9108C16.1787 41.3873 16.1519 39.6513 16.1519 37.8051C10.75 38.8247 9.3525 36.455 8.9225 35.215C8.68062 34.5812 7.6325 32.6248 6.71875 32.1013C5.96625 31.688 4.89125 30.6685 6.69187 30.6409C8.385 30.6134 9.59437 32.2391 9.9975 32.9004C11.9325 36.2345 15.0231 35.2977 16.2594 34.719C16.4475 33.2862 17.0119 32.3217 17.63 31.7707C12.8462 31.2196 7.8475 29.3183 7.8475 20.8865C7.8475 18.4893 8.68062 16.5053 10.0513 14.9622C9.83625 14.4111 9.08375 12.1517 10.2662 9.12063C10.2662 9.12063 12.0669 8.54198 16.1787 11.3801C17.8988 10.8841 19.7263 10.6361 21.5538 10.6361C23.3813 10.6361 25.2088 10.8841 26.9288 11.3801C31.0406 8.51443 32.8413 9.12063 32.8413 9.12063C34.0238 12.1517 33.2713 14.4111 33.0563 14.9622C34.4269 16.5053 35.26 18.4617 35.26 20.8865C35.26 29.3458 30.2344 31.2196 25.4506 31.7707C26.23 32.4595 26.9019 33.7822 26.9019 35.8488C26.9019 38.7971 26.875 41.1668 26.875 41.9108C26.875 42.4895 27.2781 43.1783 28.3531 42.9579C32.6215 41.4809 36.3305 38.6685 38.9581 34.9167C41.5856 31.1649 42.9993 26.6627 43 22.0438C43 9.86461 33.3787 0 21.5 0Z" fill="white"/>
</svg>
