<svg width="44" height="45" viewBox="0 0 44 45" fill="none" xmlns="http://www.w3.org/2000/svg">
<path d="M22 0.5C16.0298 0.5 15.279 0.5275 12.9333 0.632C10.5875 0.742 8.98975 1.1105 7.59 1.655C6.12176 2.20725 4.79185 3.07352 3.69325 4.19325C2.57421 5.29241 1.70805 6.62216 1.155 8.09C0.6105 9.487 0.23925 11.0875 0.132 13.425C0.0275 15.7762 0 16.5243 0 22.5028C0 28.4757 0.0275 29.2238 0.132 31.5695C0.242 33.9125 0.6105 35.5103 1.155 36.91C1.71875 38.3565 2.4695 39.583 3.69325 40.8067C4.91425 42.0305 6.14075 42.784 7.58725 43.345C8.98975 43.8895 10.5848 44.2607 12.9278 44.368C15.2763 44.4725 16.0243 44.5 22 44.5C27.9757 44.5 28.721 44.4725 31.0695 44.368C33.4098 44.258 35.013 43.8895 36.4128 43.345C37.88 42.7925 39.209 41.9262 40.3067 40.8067C41.5305 39.583 42.2812 38.3565 42.845 36.91C43.3867 35.5103 43.758 33.9125 43.868 31.5695C43.9725 29.2238 44 28.4757 44 22.5C44 16.5243 43.9725 15.7763 43.868 13.4278C43.758 11.0875 43.3867 9.487 42.845 8.09C42.292 6.62212 41.4259 5.29236 40.3067 4.19325C39.2085 3.07311 37.8785 2.20677 36.41 1.655C35.0075 1.1105 33.407 0.73925 31.0667 0.632C28.7183 0.5275 27.973 0.5 21.9945 0.5H22.0028H22ZM20.0282 4.4655H22.0028C27.8768 4.4655 28.5725 4.48475 30.8907 4.592C33.0357 4.68825 34.2017 5.0485 34.9772 5.34825C36.003 5.747 36.7373 6.2255 37.5072 6.9955C38.2772 7.7655 38.753 8.497 39.1518 9.5255C39.4543 10.2983 39.8117 11.4643 39.908 13.6093C40.0153 15.9275 40.0373 16.6233 40.0373 22.4945C40.0373 28.3658 40.0153 29.0642 39.908 31.3825C39.8117 33.5275 39.4515 34.6908 39.1518 35.4663C38.799 36.4215 38.2361 37.2852 37.5045 37.9935C36.7345 38.7635 36.003 39.2393 34.9745 39.638C34.2045 39.9405 33.0385 40.298 30.8907 40.397C28.5725 40.5015 27.8768 40.5263 22.0028 40.5263C16.1288 40.5263 15.4303 40.5015 13.112 40.397C10.967 40.298 9.80375 39.9405 9.02825 39.638C8.07262 39.2858 7.2081 38.7238 6.49825 37.9935C5.76606 37.2841 5.20224 36.4196 4.84825 35.4635C4.5485 34.6908 4.18825 33.5247 4.092 31.3797C3.9875 29.0615 3.9655 28.3657 3.9655 22.489C3.9655 16.615 3.9875 15.922 4.092 13.6037C4.191 11.4587 4.5485 10.2928 4.851 9.51725C5.24975 8.4915 5.72825 7.75725 6.49825 6.98725C7.26825 6.21725 7.99975 5.7415 9.02825 5.34275C9.80375 5.04025 10.967 4.68275 13.112 4.58375C15.1415 4.49025 15.928 4.46275 20.0282 4.46V4.4655ZM33.7453 8.1175C33.3986 8.1175 33.0553 8.18579 32.735 8.31846C32.4147 8.45113 32.1236 8.64559 31.8785 8.89074C31.6333 9.13589 31.4389 9.42692 31.3062 9.74722C31.1735 10.0675 31.1052 10.4108 31.1052 10.7575C31.1052 11.1042 31.1735 11.4475 31.3062 11.7678C31.4389 12.0881 31.6333 12.3791 31.8785 12.6243C32.1236 12.8694 32.4147 13.0639 32.735 13.1965C33.0553 13.3292 33.3986 13.3975 33.7453 13.3975C34.4454 13.3975 35.1169 13.1194 35.612 12.6243C36.1071 12.1292 36.3853 11.4577 36.3853 10.7575C36.3853 10.0573 36.1071 9.38583 35.612 8.89074C35.1169 8.39564 34.4454 8.1175 33.7453 8.1175ZM22.0028 11.203C20.5042 11.1796 19.016 11.4546 17.6247 12.0119C16.2334 12.5692 14.9669 13.3977 13.8989 14.4492C12.8309 15.5006 11.9828 16.7541 11.4038 18.1365C10.8249 19.5189 10.5267 21.0026 10.5267 22.5014C10.5267 24.0001 10.8249 25.4839 11.4038 26.8663C11.9828 28.2487 12.8309 29.5021 13.8989 30.5536C14.9669 31.6051 16.2334 32.4336 17.6247 32.9909C19.016 33.5482 20.5042 33.8231 22.0028 33.7998C24.9687 33.7535 27.7976 32.5428 29.8787 30.4289C31.9598 28.3151 33.1262 25.4677 33.1262 22.5014C33.1262 19.535 31.9598 16.6876 29.8787 14.5738C27.7976 12.46 24.9687 11.2493 22.0028 11.203ZM22.0028 15.1658C23.9479 15.1658 25.8134 15.9385 27.1888 17.3139C28.5643 18.6893 29.337 20.5548 29.337 22.5C29.337 24.4452 28.5643 26.3107 27.1888 27.6861C25.8134 29.0615 23.9479 29.8342 22.0028 29.8342C20.0576 29.8342 18.1921 29.0615 16.8167 27.6861C15.4412 26.3107 14.6685 24.4452 14.6685 22.5C14.6685 20.5548 15.4412 18.6893 16.8167 17.3139C18.1921 15.9385 20.0576 15.1658 22.0028 15.1658Z" fill="white"/>
</svg>
