<svg width="44" height="45" viewBox="0 0 44 45" fill="none" xmlns="http://www.w3.org/2000/svg">
<path d="M0 3.6515C0 1.91075 1.4465 0.5 3.23125 0.5H40.7687C42.5535 0.5 44 1.91075 44 3.6515V41.3485C44 43.0892 42.5535 44.5 40.7687 44.5H3.23125C1.4465 44.5 0 43.0892 0 41.3485V3.6515ZM13.5932 37.3335V17.4648H6.9905V37.3335H13.5932ZM10.2933 14.7505C12.595 14.7505 14.0278 13.227 14.0278 11.3185C13.9865 9.36875 12.5978 7.8865 10.3372 7.8865C8.07675 7.8865 6.6 9.3715 6.6 11.3185C6.6 13.227 8.03275 14.7505 10.2493 14.7505H10.2933ZM23.7903 37.3335V26.2373C23.7903 25.6433 23.8342 25.0492 24.0103 24.6257C24.486 23.4405 25.5723 22.2113 27.3983 22.2113C29.788 22.2113 30.7423 24.0318 30.7423 26.7048V37.3335H37.345V25.9375C37.345 19.8325 34.089 16.9945 29.744 16.9945C26.2405 16.9945 24.6702 18.9195 23.7903 20.2752V20.344H23.7463C23.7609 20.321 23.7755 20.2981 23.7903 20.2752V17.4648H17.1903C17.2727 19.3293 17.1903 37.3335 17.1903 37.3335H23.7903Z" fill="white"/>
</svg>
